HIERARCHY
ROOT Hips
{
	OFFSET 0.00000 0.00000 0.00000
	CHANNELS 6 Xposition Yposition Zposition Zrotation Yrotation Xrotation 
	JOINT LHipJoint
	{
		OFFSET 0 0 0
		CHANNELS 3 Zrotation Yrotation Xrotation
		JOINT LeftHip
		{
			OFFSET 1.29432 -1.88279 0.59910
			CHANNELS 3 Zrotation Yrotation Xrotation
			JOINT LeftKnee
			{
				OFFSET 2.63039 -7.22694 0.00000
				CHANNELS 3 Zrotation Yrotation Xrotation
				JOINT LeftAnkle
				{
					OFFSET 2.70674 -7.43672 0.00000
					CHANNELS 3 Zrotation Yrotation Xrotation
					JOINT LeftToe
					{
						OFFSET 0.15066 -0.41394 2.09027
						CHANNELS 3 Zrotation Yrotation Xrotation
						End Site
						{
							OFFSET 0.00000 -0.00000 1.07518
						}
					}
				}
			}
		}
	}
	JOINT RHipJoint
	{
		OFFSET 0 0 0
		CHANNELS 3 Zrotation Yrotation Xrotation
		JOINT RightHip
		{
			OFFSET -1.37068 -1.88279 0.59910
			CHANNELS 3 Zrotation Yrotation Xrotation
			JOINT RightKnee
			{
				OFFSET -2.57023 -7.06166 0.00000
				CHANNELS 3 Zrotation Yrotation Xrotation
				JOINT RightAnkle
				{
					OFFSET -2.76461 -7.59570 0.00000
					CHANNELS 3 Zrotation Yrotation Xrotation
					JOINT RightToe
					{
						OFFSET -0.24175 -0.64785 2.19719
						CHANNELS 3 Zrotation Yrotation Xrotation
						End Site
						{
							OFFSET -0.00000 -0.00000 1.14803
						}
					}
				}
			}
		}
	}
	JOINT lowerback
	{
		OFFSET 0 0 0
		CHANNELS 3 Zrotation Yrotation Xrotation
		JOINT Chest
		{
			OFFSET -0.03138 2.03983 -0.23106
			CHANNELS 3 Zrotation Yrotation Xrotation
			JOINT Chest2
			{
				OFFSET -0.00325 2.06238 -0.06878
				CHANNELS 3 Zrotation Yrotation Xrotation
				JOINT lowerneck
				{
					OFFSET 0 0 0
					CHANNELS 3 Zrotation Yrotation Xrotation
					JOINT Neck
					{
						OFFSET -0.00002 1.75318 0.18090
						CHANNELS 3 Zrotation Yrotation Xrotation
						JOINT Head
						{
							OFFSET 0.08806 1.75856 -0.25387
							CHANNELS 3 Zrotation Yrotation Xrotation
							End Site
							{
								OFFSET 0.02554 1.78597 -0.10684
							}
						}
					}
				}
				JOINT LeftCollar
				{
					OFFSET 0 0 0
					CHANNELS 3 Zrotation Yrotation Xrotation
					JOINT LeftShoulder
					{
						OFFSET 3.09657 1.33597 -0.04414
CHANNELS 3 Zrotation Xrotation Yrotation
						JOINT LeftElbow
						{
OFFSET 0 -5.342980 -0.000000
CHANNELS 3 Zrotation Xrotation Yrotation
							JOINT LeftWrist
							{
OFFSET 0 -3.672620 -0.000000
CHANNELS 3 Zrotation Xrotation Yrotation
								JOINT lhand
								{
									OFFSET 0 0 0
CHANNELS 3 Zrotation Xrotation Yrotation
									JOINT LFingers
									{
OFFSET 0 -0.599300 -0.000000
CHANNELS 3 Zrotation Xrotation Yrotation
										End Site
										{
OFFSET 0 -0.483170 -0.000000
										}
									}
								}
								JOINT LThumb
								{
OFFSET 0 0.000000 0.000000
CHANNELS 3 Zrotation Xrotation Yrotation
									End Site
									{
OFFSET 0 -0.490550 0.490550
									}
								}
							}
						}
					}
				}
				JOINT RightCollar
				{
					OFFSET 0 0 0
					CHANNELS 3 Zrotation Yrotation Xrotation
					JOINT RightShoulder
					{
						OFFSET -3.16460 1.32273 -0.23382
CHANNELS 3 Zrotation Xrotation Yrotation
						JOINT RightElbow
						{
OFFSET 0 -5.549670 0.033480
CHANNELS 3 Zrotation Xrotation Yrotation
							JOINT RightWrist
							{
OFFSET 0 -3.694010 0.000000
CHANNELS 3 Zrotation Xrotation Yrotation
								JOINT rhand
								{
									OFFSET 0 0 0
CHANNELS 3 Zrotation Xrotation Yrotation
									JOINT RFingers
									{
OFFSET 0 -0.638110 0.000000
CHANNELS 3 Zrotation Xrotation Yrotation
										End Site
										{
OFFSET 0 -0.514460 0.000000
										}
									}
								}
								JOINT RThumb
								{
OFFSET 0 0.000000 0.000000
CHANNELS 3 Zrotation Xrotation Yrotation
									End Site
									{
OFFSET 0 -0.522320 0.522320
									}
								}
							}
						}
					}
				}
			}
		}
	}
}
MOTION
Frames: 4
Frame Time: 0.008333333333333333
18.052218 18.516890 -3.508000 0.779979 -8.785973 3.821162 0.000000 0.000000 0.000000 -15.289402 -9.612751 -21.488145 1.332401 7.309164 20.634567 -0.050041 4.545503 -4.021873 0.833052 5.821075 16.266670 0.000000 0.000000 0.000000 18.570821 4.098559 9.945849 -1.545391 -7.843010 22.240366 -0.060408 3.570011 -4.688650 -1.019460 6.422817 -18.016410 -2.516830 0.630894 2.114192 -2.625821 0.812343 1.882611 -1.292883 0.393933 0.748685 -10.938724 -11.662447 -2.874774 15.199048 -17.243885 12.760919 5.189240 -8.130223 6.633137 0.000000 0.000000 0.000000 6.366859 17.222249 -36.302256 109.277148 -58.548253 76.613176 25.488362 40.645436 -21.657339 0.000000 0.000000 0.000000 -7.125000 0.000000 0.000000 -3.449587 53.691793 0.737994 0.000000 0.000000 0.000000 -3.043997 7.550511 -25.354266 -7.288211 -12.392598 -0.792334 -27.486626 31.178270 -24.590715 0.000000 0.000000 0.000000 7.125000 0.000000 0.000000 1.196363 2.697311 1.140118
18.061654 18.522870 -3.459799 1.000336 -8.772120 3.799285 0.000000 0.000000 0.000000 -15.627405 -9.590454 -21.392436 1.345804 7.344293 20.739502 -0.044722 4.423109 -4.109619 0.865356 5.928624 16.578409 0.000000 0.000000 0.000000 18.206464 4.049277 9.650547 -1.624573 -8.028629 22.805097 -0.046225 3.703434 -4.287151 -1.043981 6.496650 -18.232831 -2.750890 0.605682 2.110977 -2.698662 0.774029 1.841833 -1.236449 0.373198 0.706855 -11.015773 -11.670741 -2.873121 15.262544 -17.261855 12.759958 5.218719 -8.139268 6.648012 0.000000 0.000000 0.000000 6.408178 17.293348 -36.188967 109.293045 -58.545759 76.626729 25.454886 40.430307 -21.481816 0.000000 0.000000 0.000000 -7.125000 0.000000 0.000000 -3.434562 53.497579 0.718581 0.000000 0.000000 0.000000 -3.028792 7.833733 -26.105999 -7.253834 -12.336194 -0.785002 -27.152079 31.976009 -24.831146 0.000000 0.000000 0.000000 7.125000 0.000000 0.000000 1.433488 2.511932 1.371955
18.071089 18.528850 -3.411599 1.220693 -8.758267 3.777409 0.000000 0.000000 0.000000 -15.965408 -9.568157 -21.296726 1.359206 7.379421 20.844437 -0.039403 4.300715 -4.197366 0.897660 6.036173 16.890149 0.000000 0.000000 0.000000 17.842107 3.999995 9.355245 -1.703755 -8.214248 23.369828 -0.032041 3.836856 -3.885652 -1.068502 6.570483 -18.449252 -2.984950 0.580470 2.107762 -2.771504 0.735715 1.801055 -1.180015 0.352464 0.665026 -11.092821 -11.679035 -2.871468 15.326040 -17.279825 12.758996 5.248198 -8.148313 6.662887 0.000000 0.000000 0.000000 6.449497 17.364446 -36.075678 109.308941 -58.543265 76.640281 25.421411 40.215179 -21.306294 0.000000 0.000000 0.000000 -7.125000 0.000000 0.000000 -3.419537 53.303366 0.699169 0.000000 0.000000 0.000000 -3.013587 8.116955 -26.857732 -7.219457 -12.279790 -0.777669 -26.817531 32.773749 -25.071577 0.000000 0.000000 0.000000 7.125000 0.000000 0.000000 1.670613 2.326553 1.603791
18.079966 18.534183 -3.363062 1.409103 -8.745304 3.742418 0.000000 0.000000 0.000000 -16.268861 -9.532704 -21.185227 1.373271 7.416113 20.954118 -0.034037 4.178911 -4.288616 0.935242 6.158198 17.244786 0.000000 0.000000 0.000000 17.524001 3.969018 9.082305 -1.784702 -8.400830 23.939305 -0.018447 3.941819 -3.470252 -1.080897 6.607338 -18.557447 -3.190867 0.556826 2.118654 -2.833047 0.699259 1.765028 -1.127840 0.332930 0.620396 -11.171748 -11.686117 -2.850496 15.388713 -17.293551 12.731837 5.279607 -8.157187 6.665615 0.000000 0.000000 0.000000 6.483162 17.441750 -35.958932 109.335318 -58.539125 76.662772 25.399119 40.015276 -21.129068 0.000000 0.000000 0.000000 -7.125000 0.000000 0.000000 -3.392925 53.109416 0.677707 0.000000 0.000000 0.000000 -3.002237 8.415951 -27.495676 -7.198991 -12.246199 -0.773308 -26.384969 33.543604 -25.256068 0.000000 0.000000 0.000000 7.125000 0.000000 0.000000 1.959429 2.220024 1.881848
